<svg width="120" height="120" viewBox="0 0 120 120" fill="none" xmlns="http://www.w3.org/2000/svg">
<path d="M81.1123 1C83.707 1.00013 85.8105 3.10355 85.8105 5.69824V10.3965H87.6895C102.22 10.3965 114 22.1763 114 36.707V93.0859C114 107.617 102.22 119.396 87.6895 119.396H31.3105C16.7797 119.396 5 107.617 5 93.0859V36.707C5.00004 22.1763 16.7798 10.3965 31.3105 10.3965H33.1895V5.69824C33.1895 3.10355 35.293 1.00013 37.8877 1C40.4825 1 42.5859 3.10347 42.5859 5.69824V10.3965H76.4141V5.69824C76.4141 3.10347 78.5175 1 81.1123 1ZM14.3965 91.207C14.3966 101.586 22.8105 110 33.1895 110H85.8105C96.1895 110 104.603 101.586 104.604 91.207V51.7412H14.3965V91.207ZM38.8271 87.4482C41.9408 87.4482 44.4657 89.9723 44.4658 93.0859C44.4658 96.1997 41.9409 98.7246 38.8271 98.7246C35.7136 98.7244 33.1895 96.1995 33.1895 93.0859C33.1896 89.9725 35.7137 87.4485 38.8271 87.4482ZM59.5 87.4482C62.6137 87.4482 65.1376 89.9723 65.1377 93.0859C65.1377 96.1997 62.6137 98.7246 59.5 98.7246C56.3863 98.7246 53.8623 96.1997 53.8623 93.0859C53.8624 89.9723 56.3863 87.4482 59.5 87.4482ZM38.8271 64.8965C41.9408 64.8965 44.4657 67.4206 44.4658 70.5342C44.4658 73.6479 41.9409 76.1729 38.8271 76.1729C35.7136 76.1726 33.1895 73.6478 33.1895 70.5342C33.1896 67.4207 35.7137 64.8967 38.8271 64.8965ZM59.5 64.8965C62.6136 64.8965 65.1375 67.4206 65.1377 70.5342C65.1377 73.6479 62.6137 76.1729 59.5 76.1729C56.3863 76.1729 53.8623 73.6479 53.8623 70.5342C53.8625 67.4206 56.3864 64.8965 59.5 64.8965ZM82.0518 64.8965C85.1654 64.8965 87.6893 67.4206 87.6895 70.5342C87.6895 73.6479 85.1655 76.1728 82.0518 76.1729C78.938 76.1729 76.4141 73.6479 76.4141 70.5342C76.4142 67.4206 78.9381 64.8965 82.0518 64.8965ZM42.5859 26.3711C42.5857 28.9657 40.4823 31.0693 37.8877 31.0693C35.2932 31.0692 33.1897 28.9656 33.1895 26.3711V19.793L32.7041 19.7988C22.5495 20.0564 14.3966 28.3693 14.3965 38.5859V44.2246H104.604V38.5859C104.603 28.3693 96.4505 20.0564 86.2959 19.7988L85.8105 19.793V26.3711C85.8103 28.9656 83.7068 31.0692 81.1123 31.0693C78.5177 31.0693 76.4143 28.9657 76.4141 26.3711V19.793H42.5859V26.3711Z" fill="#303030"/>
</svg>
